<svg xmlns="http://www.w3.org/2000/svg" xmlns:xlink="http://www.w3.org/1999/xlink" xmlns:inkscape="http://www.inkscape.org/namespaces/inkscape" version="1.1" width="371.00703" height="298.2791" viewBox="0 0 371.00703 298.2791">
<defs>
<clipPath id="clip_0">
<path transform="matrix(1,0,0,-1,-325.063,536.565)" d="M325.063 238.2859H696.07V536.565H325.063Z" clip-rule="evenodd"/>
</clipPath>
<clipPath id="clip_1">
<path transform="matrix(1,0,0,-1,-325.063,536.565)" d="M329.375 239.538H698.48806V535.651H329.375Z"/>
</clipPath>
</defs>
<g clip-path="url(#clip_0)">
<g clip-path="url(#clip_1)">
<path transform="matrix(1,0,0,-1,-325.063,536.565)" d="M329.6254 350.9142C330.4678 309.6362 349.0008 256.1434 396.5968 251.0889 452.6169 251.0889 482.9435 308.7938 489.2616 357.6535 490.104 364.3927 491.3676 385.4529 490.9464 388.4013 490.104 394.2982 486.7343 401.0374 482.5223 403.9859 478.3103 407.3555 473.2558 409.4615 467.7802 409.4615 455.5653 409.4615 443.7716 401.0374 434.9263 393.0346 423.1326 380.8197 415.5509 363.1291 416.8145 349.6506 417.2358 347.5446 416.8145 346.7022 416.3933 345.0173 415.1297 342.9113 413.4449 341.6477 409.6541 341.6477 405.4421 341.6477 403.7572 343.7537 402.0724 351.7566 400.3876 359.3383 400.8088 379.9772 403.336 395.5618 406.2845 411.5675 410.0753 422.5188 416.3933 432.2065 420.1842 437.2609 425.6598 444.4214 426.5022 444.4214 426.9234 444.4214 427.3446 443.579 427.3446 442.7366 427.3446 430.5217 444.614 411.9887 458.0925 411.9887 461.8833 411.9887 462.7257 412.4099 465.6742 413.6735 472.8346 417.4644 479.1527 427.9945 479.1527 435.9973 482.5223 446.1062 484.6283 458.3211 485.0495 469.6936 486.7343 491.175 482.5223 509.708 473.2558 521.5017 468.6226 527.3985 463.1469 531.1893 455.9865 533.7166 453.0381 534.559 450.932 534.9802 446.2988 534.9802 437.0323 535.4014 429.0295 533.2954 418.4994 528.2409 378.9062 508.4444 340.9979 448.6334 333.4162 394.2982 332.995 390.5073 332.1526 385.0317 331.7314 382.5045 329.6254 370.2896 329.6254 364.8139 329.6254 350.9142ZM377.6426 433.0489 378.0638 435.1549C379.7486 448.2122 388.1727 464.218 396.1756 474.7481 401.23 481.0661 414.2873 493.281 416.3933 493.281 416.3933 493.281 417.657 491.175 418.4994 488.6478L420.6054 483.5933 416.3933 480.6449C407.1269 473.9057 394.912 460.0059 386.4879 447.791 384.3819 444.8426 381.8546 440.2094 380.1698 437.6821L377.6426 433.0489ZM433.2415 298.2637C439.9807 309.215 448.826 328.1692 454.3017 344.5961 455.5653 348.387 456.8289 351.3354 457.2501 351.3354 457.2501 351.3354 458.9349 350.0718 460.6197 348.387L463.5681 345.0173 462.7257 341.2265C458.5137 323.1148 446.72 306.6878 431.9779 295.7365 431.5567 295.7365 432.3991 297.0001 433.2415 298.2637Z" fill="#2d2d2d"/>
<path transform="matrix(1,0,0,-1,-325.063,536.565)" d="M490.6633 352.8828C493.8243 315.6528 506.8197 249.6221 550.7231 240.8414 552.4792 240.4903 554.2354 240.139 554.5866 240.139 556.6939 239.7877 565.1234 240.4903 568.2845 241.1926 581.9823 244.0025 595.6801 252.7832 609.0268 266.481L613.2415 270.6957H614.9976C617.105 270.3445 624.8319 271.047 627.993 271.7494 646.2567 275.6129 663.8181 290.7157 673.6525 306.5209 695.0773 338.4825 698.2383 381.3322 681.0282 407.323 671.8963 421.372 658.5497 428.7478 642.7445 428.7478 632.5589 428.7478 622.0221 425.2355 611.8366 418.5622 609.7292 417.5085 608.3242 416.4549 608.3242 416.8061 608.3242 416.8061 609.378 419.2647 610.4317 421.7233 620.6172 444.9042 624.4807 470.5438 620.6172 489.8613 616.7537 509.1787 605.8657 522.1741 590.0605 526.0376 585.4945 527.0913 577.4163 527.0913 572.4992 526.0376 533.8642 518.3106 503.3075 472.6511 493.8243 436.4748 491.3658 425.5867 489.9608 417.5085 489.6096 404.5131 489.6096 399.9472 489.6096 393.2739 489.2584 389.7616 488.9072 381.6834 489.6096 363.0684 490.6633 352.8828ZM567.5819 327.9457C567.9332 338.8337 589.7093 354.9902 609.0268 359.2049 614.6464 360.2586 620.6172 360.2586 623.0758 358.8537 626.2368 357.4487 627.2906 354.6389 626.2368 351.1267 622.0221 340.2386 601.651 326.1896 584.7921 322.6773 573.9041 320.5699 567.5819 322.6773 567.5819 327.9457ZM538.7814 410.484C543.6985 422.7769 551.7768 435.0699 556.6939 437.5285 557.7476 438.2309 558.0988 438.2309 558.8013 437.5285 559.855 436.4748 559.5038 429.8015 558.0988 424.5331 555.6403 415.0499 546.5083 393.2739 537.3765 387.6543 535.6203 386.9518 535.2691 386.9518 534.5667 388.7079 533.513 392.2202 535.2691 401.7033 538.7814 410.484ZM519.1127 426.2892 519.4639 430.1527C520.5176 445.6067 526.8396 461.7631 534.9179 474.7585 539.4838 481.4318 546.5083 489.1588 547.2108 488.1051 547.9132 487.4027 548.2645 479.3245 548.2645 477.9195 548.6158 477.2171 547.562 475.8122 544.7522 473.0024 539.8351 467.734 537.3765 464.5729 534.5667 460.3582 529.2982 451.2263 524.3811 441.0407 520.8688 430.8552L519.1127 426.2892ZM645.9055 319.8675C651.5252 331.8092 654.6862 347.9656 653.6325 360.6098 653.2813 363.4196 652.9301 366.5806 652.9301 367.2831 652.5789 369.0392 652.9301 369.3905 656.0911 372.9027 657.8473 375.3613 659.2522 377.1174 659.6034 377.1174 660.3058 377.1174 661.3595 372.5515 661.7107 367.9856 663.4669 353.5853 657.1448 333.2141 646.9593 319.5163 645.5544 317.7601 644.5006 316.004 644.5006 316.004 644.1494 316.004 644.8518 317.7601 645.9055 319.8675Z" fill="#2d2d2d"/>
</g>
</g>
</svg>
